<?xml version="1.0" encoding="UTF-8" standalone="no"?>
<!-- Created with Inkscape (http://www.inkscape.org/) -->

<svg
   width="210mm"
   height="20mm"
   viewBox="0 0 210 20"
   version="1.1"
   id="svg5347"
   sodipodi:docname="vegniette.svg"
   inkscape:version="1.2.2 (b0a8486541, 2022-12-01)"
   xmlns:inkscape="http://www.inkscape.org/namespaces/inkscape"
   xmlns:sodipodi="http://sodipodi.sourceforge.net/DTD/sodipodi-0.dtd"
   xmlns="http://www.w3.org/2000/svg"
   xmlns:svg="http://www.w3.org/2000/svg">
  <sodipodi:namedview
     id="namedview692"
     pagecolor="#ffffff"
     bordercolor="#666666"
     borderopacity="1.0"
     inkscape:showpageshadow="2"
     inkscape:pageopacity="0.0"
     inkscape:pagecheckerboard="0"
     inkscape:deskcolor="#d1d1d1"
     inkscape:document-units="mm"
     showgrid="false"
     inkscape:zoom="1.2338943"
     inkscape:cx="379.28694"
     inkscape:cy="38.090782"
     inkscape:window-width="1920"
     inkscape:window-height="1051"
     inkscape:window-x="0"
     inkscape:window-y="0"
     inkscape:window-maximized="1"
     inkscape:current-layer="svg5347" />
  <defs
     id="defs5344">
    <clipPath
       clipPathUnits="userSpaceOnUse"
       id="clipPath3249">
      <path
         d="M 0,0 H 5953 V 6134 H 0 Z"
         id="path3247" />
    </clipPath>
  </defs>
  <g
     id="layer1"
     style="fill:#616b71;fill-opacity:1"
     transform="translate(0,0.52916667)">
    <path
       d="m 99.145948,18.743926 c -0.11606,0.005 -0.11606,0.0268 0,0.0631 0.0416,0.0106 4.253092,1.19345 11.749972,-3.65372 1.02518,-0.65722 2.45534,-1.26718 3.53308,-0.3944 0.25753,0.20531 0.3997,0.48895 0.44662,0.7941 h -0.81986 c -0.0998,-0.35243 -0.4258,-0.6156 -0.81492,-0.6156 -0.46249,0 -0.84631,0.38418 -0.84631,0.85231 0,0.46249 0.38382,0.84596 0.84631,0.84596 0.38912,0 0.71509,-0.25788 0.81492,-0.6096 h 0.80433 c -0.0684,0.35172 -0.27305,0.68863 -0.59936,0.91476 -0.0212,0.0155 0.005,0.0631 0.0529,0.0526 0.2734,-0.0635 0.59373,-0.52564 0.69356,-0.96732 h 65.58139 c 0.10548,0.35172 0.43145,0.6096 0.81492,0.6096 0.38382,0 0.70979,-0.25788 0.81491,-0.6096 h 0.0314 v -0.23636 -0.23672 h -0.0314 c -0.10512,-0.35242 -0.43109,-0.61559 -0.81491,-0.61559 -0.38347,0 -0.70944,0.26317 -0.81492,0.61559 h -65.56022 c -0.0949,-0.77822 -0.74648,-1.3723 -1.47743,-1.58785 -1.40371,-0.41557 -2.83882,0.0631 -4.12681,0.64135 -2.44475,1.08797 -6.63469,3.92183 -10.278182,4.13738 z m -0.23671,-1.99778 c 2.139952,-1.05657 4.121852,-2.21862 6.487582,-2.88643 1.59315,-0.44661 3.12279,-0.64629 4.76815,-0.42051 0.0579,0.0106 0.0529,0.079 0.006,0.0843 -1.25659,0.11571 -2.84409,0.69392 -3.66959,1.05657 -2.34492,1.02517 -4.3741,2.36608 -6.902812,3.13902 -1.20438,0.36795 -2.418636,0.53587 -3.596566,0.0995 -0.97225,-0.35737 -1.40899,-1.09855 -1.41922,-1.79247 H 29.940589 c -0.0998,0.35172 -0.4258,0.6096 -0.80959,0.6096 -0.46785,0 -0.85164,-0.38346 -0.85164,-0.84596 0,-0.46813 0.38379,-0.85231 0.85164,-0.85231 0.38379,0 0.70983,0.26317 0.80959,0.6156 h 64.705343 c 0.13652,-0.4893 0.49424,-0.89394 1.01988,-1.05692 0.0526,-0.0159 0.079,0.0631 0.0473,0.0734 -0.44697,0.16298 -0.80433,0.54186 -0.89923,0.98354 h 1.12536 c 0.10513,-0.35242 0.43109,-0.6156 0.81456,-0.6156 0.38418,0 0.70979,0.26318 0.81527,0.6156 h 0.0314 v 0.23672 0.23636 h -0.0314 c -0.10548,0.35172 -0.43109,0.6096 -0.81527,0.6096 -0.38347,0 -0.70943,-0.25788 -0.81456,-0.6096 h -1.1303 c 0.005,0.0314 0.0155,0.0631 0.0265,0.0892 0.16263,0.55739 0.56233,0.98319 1.09855,1.17228 1.03046,0.3683 2.060916,-0.0892 2.975676,-0.54152 v 0"
       style="fill:#616b71;fill-opacity:1;fill-rule:evenodd;stroke:none;stroke-width:0.0352778"
       id="path3651" />
  </g>
  <rect
     style="fill:none;stroke-width:0.287123;stroke-linecap:round;stroke-linejoin:round;paint-order:markers stroke fill;stroke:none"
     id="rect925"
     width="175.37823"
     height="18.122868"
     x="17.310883"
     y="1.8771324" />
</svg>
